<svg width="36" height="28" viewBox="0 0 36 28" fill="none" xmlns="http://www.w3.org/2000/svg">
<path d="M33.5556 0.666666H2.44444C1.85507 0.666666 1.28984 0.900792 0.873095 1.31754C0.456348 1.73429 0.222221 2.29952 0.222221 2.88889V25.1111C0.222221 25.7005 0.456348 26.2657 0.873095 26.6825C1.28984 27.0992 1.85507 27.3333 2.44444 27.3333H33.5556C34.1449 27.3333 34.7102 27.0992 35.1269 26.6825C35.5437 26.2657 35.7778 25.7005 35.7778 25.1111V2.88889C35.7778 2.29952 35.5437 1.73429 35.1269 1.31754C34.7102 0.900792 34.1449 0.666666 33.5556 0.666666V0.666666ZM31.8444 25.1111H4.28889L12.0667 17.0667L10.4667 15.5222L2.44444 23.8222V4.57778L16.2556 18.3222C16.6719 18.7361 17.2351 18.9684 17.8222 18.9684C18.4093 18.9684 18.9725 18.7361 19.3889 18.3222L33.5556 4.23333V23.6778L25.3778 15.5L23.8111 17.0667L31.8444 25.1111ZM3.9 2.88889H31.7556L17.8222 16.7444L3.9 2.88889Z" fill="white"/>
</svg>
