<svg width="40" height="40" viewBox="0 0 40 40" fill="none" xmlns="http://www.w3.org/2000/svg">
<path d="M19.8378 9.96813C18.8489 9.96813 17.8822 10.2614 17.06 10.8108C16.2377 11.3602 15.5969 12.1411 15.2184 13.0547C14.84 13.9683 14.741 14.9737 14.9339 15.9436C15.1268 16.9135 15.603 17.8044 16.3023 18.5037C17.0015 19.2029 17.8925 19.6791 18.8624 19.8721C19.8323 20.065 20.8376 19.966 21.7512 19.5875C22.6649 19.2091 23.4458 18.5682 23.9952 17.746C24.5446 16.9237 24.8378 15.957 24.8378 14.9681C24.8363 13.6425 24.309 12.3716 23.3717 11.4343C22.4343 10.4969 21.1634 9.96963 19.8378 9.96813V9.96813ZM19.8378 17.4681C19.3434 17.4681 18.86 17.3215 18.4489 17.0468C18.0378 16.7721 17.7173 16.3816 17.5281 15.9248C17.3389 15.468 17.2894 14.9654 17.3859 14.4804C17.4823 13.9954 17.7204 13.55 18.07 13.2004C18.4197 12.8507 18.8651 12.6126 19.3501 12.5162C19.835 12.4197 20.3377 12.4692 20.7945 12.6584C21.2513 12.8476 21.6418 13.1681 21.9165 13.5792C22.1912 13.9903 22.3378 14.4737 22.3378 14.9681C22.3371 15.6309 22.0734 16.2664 21.6047 16.735C21.1361 17.2037 20.5006 17.4674 19.8378 17.4681V17.4681Z" fill="white"/>
<path d="M29.4458 5.35273C27.0702 2.97777 23.8991 1.56694 20.5445 1.39255C17.1899 1.21815 13.8896 2.29255 11.2806 4.40838C8.67153 6.52421 6.93872 9.53149 6.41658 12.8498C5.89443 16.1681 6.61995 19.5622 8.45312 22.377L17.899 36.878C18.1092 37.2007 18.3966 37.4658 18.7352 37.6493C19.0737 37.8329 19.4527 37.929 19.8379 37.929C20.223 37.929 20.602 37.8329 20.9405 37.6493C21.2791 37.4658 21.5665 37.2007 21.7767 36.878L31.2229 22.377C32.9239 19.7659 33.6756 16.6494 33.352 13.5499C33.0285 10.4504 31.6493 7.55632 29.4458 5.35273V5.35273ZM29.1282 21.0124L19.8379 35.2741L10.5475 21.0124C7.70375 16.6469 8.31367 10.8047 11.9977 7.12047C13.0273 6.09087 14.2496 5.27414 15.5948 4.71692C16.94 4.1597 18.3818 3.87291 19.8379 3.87291C21.2939 3.87291 22.7357 4.1597 24.081 4.71692C25.4262 5.27414 26.6485 6.09087 27.678 7.12047C31.3621 10.8047 31.972 16.6469 29.1282 21.0124Z" fill="white"/>
</svg>
